HIERARCHY
ROOT Hips
{
	OFFSET 14.658700 -1.743397 44.686901
	CHANNELS 6 Xposition Yposition Zposition Zrotation Xrotation Yrotation
	JOINT Chest
	{
		OFFSET -0.825500 0.895800 5.069500
		CHANNELS 6 Xposition Yposition Zposition Zrotation Xrotation Yrotation
		JOINT Chest2
		{
			OFFSET 0.000000 0.000000 4.622200
			CHANNELS 6 Xposition Yposition Zposition Zrotation Xrotation Yrotation
			JOINT Neck
			{
				OFFSET 0.000000 0.000001 10.755798
				CHANNELS 6 Xposition Yposition Zposition Zrotation Xrotation Yrotation
				JOINT Head
				{
					OFFSET 0.000000 0.000000 2.173897
					CHANNELS 6 Xposition Yposition Zposition Zrotation Xrotation Yrotation
					End Site
					{
						OFFSET 0.000000 0.000001 10.006599
					}
				}
			}
			JOINT LeftCollar
			{
				OFFSET 2.539400 -1.380899 6.761002
				CHANNELS 6 Xposition Yposition Zposition Zrotation Xrotation Yrotation
				JOINT LeftShoulder
				{
					OFFSET 5.407000 0.000000 0.000000
					CHANNELS 6 Xposition Yposition Zposition Zrotation Xrotation Yrotation
					JOINT LeftElbow
					{
						OFFSET 0.000000 -0.000001 -10.687000
						CHANNELS 6 Xposition Yposition Zposition Zrotation Xrotation Yrotation
						JOINT LeftWrist
						{
							OFFSET 0.000000 -0.000001 -13.346901
							CHANNELS 6 Xposition Yposition Zposition Zrotation Xrotation Yrotation
							End Site
							{
								OFFSET 0.000000 -0.000000 -2.173901
							}
						}
					}
				}
			}
			JOINT RightCollar
			{
				OFFSET -2.411400 -2.842699 7.518600
				CHANNELS 6 Xposition Yposition Zposition Zrotation Xrotation Yrotation
				JOINT RightShoulder
				{
					OFFSET -4.245500 0.000000 0.000000
					CHANNELS 6 Xposition Yposition Zposition Zrotation Xrotation Yrotation
					JOINT RightElbow
					{
						OFFSET 0.000000 -0.000001 -10.446701
						CHANNELS 6 Xposition Yposition Zposition Zrotation Xrotation Yrotation
						JOINT RightWrist
						{
							OFFSET 0.000000 -0.000001 -12.218899
							CHANNELS 6 Xposition Yposition Zposition Zrotation Xrotation Yrotation
							End Site
							{
								OFFSET 0.000000 0.000000 -2.173901
							}
						}
					}
				}
			}
		}
	}
	JOINT LeftHip
	{
		OFFSET 2.346700 0.301800 -2.502800
		CHANNELS 6 Xposition Yposition Zposition Zrotation Xrotation Yrotation
		JOINT LeftKnee
		{
			OFFSET 0.000000 -0.000002 -20.597000
			CHANNELS 6 Xposition Yposition Zposition Zrotation Xrotation Yrotation
			JOINT LeftAnkle
			{
				OFFSET 0.000000 -0.000001 -17.157499
				CHANNELS 6 Xposition Yposition Zposition Zrotation Xrotation Yrotation
				End Site
				{
					OFFSET 0.000000 -9.063900 0.000001
				}
			}
		}
	}
	JOINT RightHip
	{
		OFFSET -1.908600 -0.007900 -2.706001
		CHANNELS 6 Xposition Yposition Zposition Zrotation Xrotation Yrotation
		JOINT RightKnee
		{
			OFFSET 0.000000 -0.000002 -20.198500
			CHANNELS 6 Xposition Yposition Zposition Zrotation Xrotation Yrotation
			JOINT RightAnkle
			{
				OFFSET 0.000000 -0.000001 -17.295700
				CHANNELS 6 Xposition Yposition Zposition Zrotation Xrotation Yrotation
				End Site
				{
					OFFSET 0.000000 -8.113500 0.000001
				}
			}
		}
	}
}
MOTION
Frames: 6
Frame Time: 0.041667
-6.774798 19.795807 40.223793 -1457.202172 1.637441 5.631722 -0.825498 0.895801 5.069500 16.867804 -2.724924 10.289671 0.000000 0.000001 4.622196 -22.953851 -0.868175 1.698112 -0.000002 0.000002 10.755796 48.825293 -16.066895 -25.529096 0.000002 0.000000 2.173907 0.414519 -2.769686 5.089008 2.539400 -1.380899 6.760991 5.165443 -7.818886 -3.636252 5.406994 0.000001 0.000005 192.514018 -140.814964 116.916924 -0.000003 0.000003 -10.686999 79.727487 -6.370051 14.050475 0.000001 0.000000 -13.346900 15.769334 -0.660113 54.276115 -2.411401 -2.842698 7.518595 8.092129 -1.398535 3.018816 -4.245494 -0.000002 0.000002 -918.286040 -196.971563 -845.127064 0.000005 -0.000005 -10.446701 -31.607981 -42.770839 -82.000342 -0.000003 0.000004 -12.218903 -22.454117 -12.682303 -26.885052 2.346700 0.301800 -2.502795 146.820572 -33.800711 70.475934 0.000002 0.000001 -20.596998 192.406415 31.068109 105.166137 -0.000001 -0.000003 -17.157503 -302.785810 2.666363 37.168185 -1.908600 -0.007901 -2.706002 -28.316523 -19.289195 -19.408095 0.000001 -0.000006 -20.198503 24.398757 60.785391 -20.728012 0.000002 0.000001 -17.295700 -22.374262 0.987288 2.017740
-6.822297 19.810907 40.208691 -1457.322383 1.698818 5.825511 -0.825503 0.895799 5.069494 16.999055 -2.960986 10.120705 -0.000003 0.000002 4.622202 -23.006780 -0.868157 1.701247 -0.000001 0.000003 10.755803 48.952010 -16.022116 -25.632424 0.000002 -0.000001 2.173903 0.347899 -2.847398 5.208353 2.539401 -1.380897 6.760999 5.220840 -7.814104 -3.433618 5.406999 -0.000003 0.000005 191.560032 -141.092830 116.124568 -0.000000 -0.000000 -10.686994 80.044537 -6.302420 13.513584 0.000004 0.000001 -13.346904 16.181654 -0.824494 54.015393 -2.411398 -2.842697 7.518602 7.992401 -1.393340 3.066799 -4.245501 -0.000002 0.000009 -918.118072 -197.211166 -845.113076 -0.000000 -0.000002 -10.446699 -31.995147 -42.613571 -81.901673 -0.000003 0.000004 -12.218891 -22.430459 -12.465463 -26.896264 2.346691 0.301800 -2.502799 147.310925 -33.848789 70.966553 -0.000003 0.000000 -20.596996 191.758804 30.371741 106.139214 -0.000002 -0.000000 -17.157499 -300.735661 1.074529 37.216079 -1.908604 -0.007901 -2.705999 -28.317020 -19.317240 -19.469978 -0.000000 -0.000008 -20.198496 24.885589 60.930294 -21.499885 -0.000002 -0.000001 -17.295700 -22.342066 0.658699 1.816372
-6.871198 19.816507 40.193596 -1457.324023 1.792774 5.899132 -0.825497 0.895803 5.069501 17.021467 -3.215012 10.094038 -0.000004 0.000002 4.622201 -23.017270 -0.851970 1.709073 -0.000004 0.000004 10.755807 48.810998 -15.850058 -25.553756 0.000001 -0.000002 2.173911 0.490244 -2.926094 5.142768 2.539398 -1.380896 6.760995 5.124319 -7.675452 -3.274638 5.406998 0.000000 0.000001 190.845662 -141.051220 115.403327 -0.000004 0.000005 -10.686999 80.255092 -6.215810 12.935922 0.000002 0.000003 -13.346900 16.360668 -0.797087 53.767294 -2.411402 -2.842697 7.518600 7.939131 -1.365449 3.078015 -4.245492 -0.000002 0.000005 -918.057966 -197.471656 -845.131435 -0.000003 -0.000004 -10.446695 -32.378010 -42.491980 -81.771168 0.000000 0.000003 -12.218889 -22.458854 -12.224555 -26.681214 2.346696 0.301803 -2.502799 147.682132 -33.706721 71.351353 -0.000003 -0.000002 -20.596996 191.001322 29.908463 107.028368 -0.000002 -0.000003 -17.157499 -299.150019 -0.300785 37.055986 -1.908598 -0.007894 -2.706001 -28.364843 -19.395412 -19.419876 -0.000002 -0.000006 -20.198500 25.318529 60.972921 -22.253098 0.000002 -0.000003 -17.295702 -22.491799 0.404222 1.665191
-6.916694 19.819210 40.180901 -1457.421722 1.885909 5.873324 -0.825499 0.895800 5.069503 17.143321 -3.438371 10.195166 -0.000004 0.000002 4.622199 -23.064874 -0.835515 1.720004 0.000000 -0.000001 10.755809 48.636111 -15.685693 -25.484134 0.000002 0.000002 2.173911 0.847134 -2.898899 4.964490 2.539400 -1.380901 6.760999 5.041311 -7.505896 -3.086107 5.406993 0.000000 -0.000000 190.315968 -140.569815 114.738995 0.000002 0.000004 -10.686996 80.367817 -6.079802 12.336499 0.000000 0.000005 -13.346901 16.206582 -0.722176 53.411437 -2.411401 -2.842701 7.518598 8.021618 -1.217697 3.122179 -4.245497 0.000002 0.000001 -918.172932 -197.561733 -845.270826 -0.000000 -0.000007 -10.446699 -32.671428 -42.338399 -81.706534 -0.000004 0.000002 -12.218892 -22.525873 -12.117034 -26.549359 2.346698 0.301800 -2.502805 147.956077 -33.609250 71.534333 0.000001 -0.000001 -20.596998 190.351266 29.499840 107.852662 -0.000001 -0.000001 -17.157503 -297.780211 -1.396550 37.031274 -1.908602 -0.007898 -2.706003 -28.382663 -19.548659 -19.394829 -0.000001 -0.000006 -20.198494 25.731696 61.079315 -22.892342 -0.000001 0.000000 -17.295700 -22.908398 0.273055 1.794112
-6.954499 19.818909 40.165894 -1457.383473 2.071431 5.694736 -0.825498 0.895801 5.069499 17.125629 -3.667655 10.529004 -0.000003 -0.000001 4.622202 -23.183730 -0.809445 1.733682 -0.000003 0.000002 10.755805 48.802760 -15.841891 -25.693597 0.000002 0.000003 2.173896 0.713711 -2.951394 5.215608 2.539402 -1.380900 6.760999 5.061203 -7.544369 -3.276857 5.407002 -0.000001 -0.000005 190.271080 -140.135606 114.553843 -0.000003 0.000008 -10.686996 80.045487 -5.948501 11.922116 0.000001 -0.000001 -13.346903 16.171545 -0.653509 52.977939 -2.411400 -2.842700 7.518602 8.142643 -1.177301 3.199614 -4.245492 -0.000001 0.000002 -918.215989 -197.796568 -845.463546 -0.000008 -0.000003 -10.446701 -32.977724 -42.348150 -81.692799 -0.000001 0.000002 -12.218893 -22.452585 -11.814716 -26.371307 2.346697 0.301801 -2.502797 148.205816 -33.090894 71.683102 0.000002 -0.000001 -20.596998 189.529212 28.957178 108.527396 -0.000001 -0.000004 -17.157497 -296.610527 -2.344595 37.010008 -1.908601 -0.007900 -2.705999 -28.668988 -19.828796 -19.374738 -0.000002 -0.000006 -20.198502 26.187176 61.188844 -23.337016 0.000000 0.000001 -17.295704 -23.363951 0.242307 1.692299
-6.987098 19.814606 40.154198 -1457.301401 2.058386 5.323781 -0.825502 0.895801 5.069499 17.067232 -3.539587 11.023802 -0.000001 0.000003 4.622200 -23.239375 -0.818744 1.729080 -0.000000 0.000002 10.755805 48.764860 -15.961821 -25.792539 0.000002 0.000003 2.173902 0.858719 -2.915922 5.169899 2.539402 -1.380900 6.761009 5.016536 -7.532645 -3.409983 5.406998 0.000001 -0.000002 189.866227 -139.763484 114.053559 0.000001 0.000006 -10.686996 79.437969 -5.944336 11.283712 0.000006 0.000000 -13.346901 16.631427 -0.583043 52.411272 -2.411399 -2.842699 7.518600 8.219988 -1.135778 3.215071 -4.245496 -0.000003 -0.000000 -918.292815 -198.065104 -845.678178 -0.000001 0.000004 -10.446702 -33.379271 -43.326912 -81.758239 -0.000007 0.000002 -12.218888 -23.290684 -11.481581 -26.241346 2.346700 0.301803 -2.502795 148.239448 -32.636160 71.474610 -0.000001 0.000001 -20.596996 188.751977 28.486841 109.151245 -0.000001 -0.000001 -17.157497 -295.536931 -3.170713 37.092732 -1.908601 -0.007899 -2.705995 -28.727383 -20.015878 -19.126000 -0.000000 -0.000007 -20.198500 26.234451 61.231109 -23.382043 -0.000000 -0.000002 -17.295702 -23.832572 0.254774 1.618287
